<svg xmlns="http://www.w3.org/2000/svg" version="1.1" xmlns:xlink="http://www.w3.org/1999/xlink" xmlns:svgjs="http://svgjs.dev/svgjs" width="1000" height="1000" viewBox="0 0 1000 1000"><rect width="1000" height="1000" fill="#ffffff"></rect><g transform="matrix(0.7,0,0,0.7,149.57577243500037,421.9149921119526)"><svg viewBox="0 0 396 88" data-background-color="#4a7cbf" preserveAspectRatio="xMidYMid meet" height="222" width="1000" xmlns="http://www.w3.org/2000/svg" xmlns:xlink="http://www.w3.org/1999/xlink"><g id="tight-bounds" transform="matrix(1,0,0,1,0.23999159391405556,0.2180224848659691)"><svg viewBox="0 0 395.52 87.56395503026809" height="87.56395503026809" width="395.52"><g><svg viewBox="0 0 395.52 87.56395503026809" height="87.56395503026809" width="395.52"><g><svg viewBox="0 0 395.52 87.56395503026809" height="87.56395503026809" width="395.52"><g><svg viewBox="0 0 395.52 87.56395503026809" height="87.56395503026809" width="395.52"><g><svg viewBox="0 0 395.52 87.56395503026809" height="87.56395503026809" width="395.52"><g transform="matrix(1,0,0,1,0,0)"><svg width="395.52" viewBox="3.549999952316284 -38 173.42999267578125 38.400001525878906" height="87.56395503026809" data-palette-color="#fbfbfb"><path d="M14.3 0L5.45 0Q4.6 0 4.08-0.43 3.55-0.85 3.55-1.45L3.55-1.45 3.55-35.1Q3.55-35.7 4.08-36.13 4.6-36.55 5.45-36.55L5.45-36.55 14.3-36.55Q17.35-36.55 19.8-35.48 22.25-34.4 23.68-32.02 25.1-29.65 25.1-25.65L25.1-25.65 25.1-10.9Q25.1-6.9 23.68-4.53 22.25-2.15 19.8-1.07 17.35 0 14.3 0L14.3 0ZM7.75-32.75L7.75-3.8 14.3-3.8Q17.4-3.8 19.15-5.53 20.9-7.25 20.9-10.9L20.9-10.9 20.9-25.65Q20.9-29.3 19.15-31.03 17.4-32.75 14.3-32.75L14.3-32.75 7.75-32.75ZM33.05 0L33.05 0Q32.2 0 31.62-0.48 31.05-0.95 31.05-1.5L31.05-1.5 31.05-22.25Q31.05-22.9 31.62-23.3 32.2-23.7 33.05-23.7L33.05-23.7Q33.9-23.7 34.45-23.3 35-22.9 35-22.25L35-22.25 35-19.9Q35.55-20.95 36.5-21.88 37.45-22.8 38.72-23.4 40-24 41.55-24L41.55-24 43.25-24Q43.9-24 44.37-23.45 44.85-22.9 44.85-22.1L44.85-22.1Q44.85-21.35 44.37-20.8 43.9-20.25 43.25-20.25L43.25-20.25 41.55-20.25Q39.95-20.25 38.5-19.35 37.05-18.45 36.12-16.82 35.2-15.2 35.2-12.9L35.2-12.9 35.2-1.5Q35.2-0.95 34.57-0.48 33.95 0 33.05 0ZM57.5 0.4L57.5 0.4Q54.25 0.4 51.75-0.83 49.25-2.05 47.8-4.23 46.35-6.4 46.35-9.3L46.35-9.3 46.35-14.55Q46.35-17.1 47.72-19.25 49.1-21.4 51.35-22.7 53.6-24 56.3-24L56.3-24Q58.9-24 61.07-22.8 63.25-21.6 64.57-19.55 65.9-17.5 65.9-14.8L65.9-14.8Q65.9-12.8 65.25-11.93 64.6-11.05 63.6-10.85 62.6-10.65 61.5-10.65L61.5-10.65 50.5-10.65 50.5-9.15Q50.5-6.35 52.5-4.73 54.5-3.1 57.65-3.1L57.65-3.1Q59.5-3.1 60.6-3.6 61.7-4.1 62.4-4.58 63.1-5.05 63.65-5.05L63.65-5.05Q64.2-5.05 64.57-4.73 64.95-4.4 65.15-3.95 65.35-3.5 65.35-3.15L65.35-3.15Q65.35-2.5 64.4-1.68 63.45-0.85 61.67-0.23 59.9 0.4 57.5 0.4ZM50.5-15.25L50.5-13.45 59.75-13.45Q61.1-13.45 61.52-13.78 61.95-14.1 61.95-15.05L61.95-15.05Q61.95-16.55 61.22-17.82 60.5-19.1 59.2-19.9 57.9-20.7 56.25-20.7L56.25-20.7Q54.7-20.7 53.4-19.98 52.1-19.25 51.3-18 50.5-16.75 50.5-15.25L50.5-15.25ZM75.69 0.4L75.69 0.4Q72.89 0.4 70.92-1.23 68.94-2.85 68.94-6.25L68.94-6.25Q68.94-9 70.44-10.53 71.94-12.05 74.57-12.63 77.19-13.2 80.64-13.2L80.64-13.2 83.04-13.2 83.04-14.25Q83.04-15.75 82.49-17.18 81.94-18.6 80.77-19.53 79.59-20.45 77.54-20.45L77.54-20.45Q75.79-20.45 74.77-20.1 73.74-19.75 73.14-19.38 72.54-19 72.09-19L72.09-19Q71.34-19 70.94-19.73 70.54-20.45 70.54-21.1L70.54-21.1Q70.54-21.9 71.64-22.55 72.74-23.2 74.39-23.6 76.04-24 77.64-24L77.64-24Q81.14-24 83.24-22.6 85.34-21.2 86.27-19 87.19-16.8 87.19-14.3L87.19-14.3 87.19-1.5Q87.19-0.9 86.62-0.45 86.04 0 85.14 0L85.14 0Q84.34 0 83.79-0.45 83.24-0.9 83.24-1.5L83.24-1.5 83.24-3.5Q81.94-2 80.09-0.8 78.24 0.4 75.69 0.4ZM76.99-2.95L76.99-2.95Q78.44-2.95 79.82-3.75 81.19-4.55 82.12-5.75 83.04-6.95 83.04-8.05L83.04-8.05 83.04-10.65 81.29-10.65Q79.19-10.65 77.32-10.4 75.44-10.15 74.29-9.33 73.14-8.5 73.14-6.7L73.14-6.7Q73.14-4.75 74.24-3.85 75.34-2.95 76.99-2.95ZM94.89 0L94.89 0Q93.99 0 93.42-0.48 92.84-0.95 92.84-1.5L92.84-1.5 92.84-22.25Q92.84-22.9 93.42-23.3 93.99-23.7 94.89-23.7L94.89-23.7Q95.69-23.7 96.24-23.3 96.79-22.9 96.79-22.25L96.79-22.25 96.79-20.2Q97.64-21.65 99.29-22.83 100.94-24 103.44-24L103.44-24Q105.84-24 107.64-22.6 109.44-21.2 110.29-19L110.29-19Q111.59-21.55 113.64-22.78 115.69-24 117.84-24L117.84-24Q120.04-24 122.02-22.88 123.99-21.75 125.22-19.6 126.44-17.45 126.44-14.4L126.44-14.4 126.44-1.5Q126.44-0.95 125.82-0.48 125.19 0 124.34 0L124.34 0Q123.49 0 122.89-0.48 122.29-0.95 122.29-1.5L122.29-1.5 122.29-14.4Q122.29-16.3 121.52-17.6 120.74-18.9 119.52-19.58 118.29-20.25 117.04-20.25L117.04-20.25Q115.69-20.25 114.49-19.55 113.29-18.85 112.49-17.6 111.69-16.35 111.69-14.55L111.69-14.55 111.69-1.45Q111.69-0.7 111.04-0.35 110.39 0 109.59 0L109.59 0Q108.89 0 108.22-0.35 107.54-0.7 107.54-1.45L107.54-1.45 107.54-14.5Q107.54-16.2 106.82-17.5 106.09-18.8 104.92-19.53 103.74-20.25 102.34-20.25L102.34-20.25Q100.99-20.25 99.77-19.55 98.54-18.85 97.77-17.57 96.99-16.3 96.99-14.4L96.99-14.4 96.99-1.5Q96.99-0.95 96.37-0.48 95.74 0 94.89 0ZM137.29 0.4L137.29 0.4Q134.49 0.4 132.51-1.23 130.54-2.85 130.54-6.25L130.54-6.25Q130.54-9 132.04-10.53 133.54-12.05 136.16-12.63 138.79-13.2 142.24-13.2L142.24-13.2 144.64-13.2 144.64-14.25Q144.64-15.75 144.09-17.18 143.54-18.6 142.36-19.53 141.19-20.45 139.14-20.45L139.14-20.45Q137.39-20.45 136.36-20.1 135.34-19.75 134.74-19.38 134.14-19 133.69-19L133.69-19Q132.94-19 132.54-19.73 132.14-20.45 132.14-21.1L132.14-21.1Q132.14-21.9 133.24-22.55 134.34-23.2 135.99-23.6 137.64-24 139.24-24L139.24-24Q142.74-24 144.84-22.6 146.94-21.2 147.86-19 148.79-16.8 148.79-14.3L148.79-14.3 148.79-1.5Q148.79-0.9 148.21-0.45 147.64 0 146.74 0L146.74 0Q145.94 0 145.39-0.45 144.84-0.9 144.84-1.5L144.84-1.5 144.84-3.5Q143.54-2 141.69-0.8 139.84 0.4 137.29 0.4ZM138.59-2.95L138.59-2.95Q140.04-2.95 141.41-3.75 142.79-4.55 143.71-5.75 144.64-6.95 144.64-8.05L144.64-8.05 144.64-10.65 142.89-10.65Q140.79-10.65 138.91-10.4 137.04-10.15 135.89-9.33 134.74-8.5 134.74-6.7L134.74-6.7Q134.74-4.75 135.84-3.85 136.94-2.95 138.59-2.95ZM156.94 0L156.94 0Q156.04 0 155.46-0.48 154.89-0.95 154.89-1.5L154.89-1.5 154.89-36.55Q154.89-37.2 155.46-37.6 156.04-38 156.94-38L156.94-38Q157.79-38 158.41-37.6 159.04-37.2 159.04-36.55L159.04-36.55 159.04-1.5Q159.04-0.95 158.41-0.48 157.79 0 156.94 0ZM175.13 0L173.58 0Q169.53 0 167.41-1.8 165.28-3.6 165.28-7.55L165.28-7.55 165.28-33.3Q165.28-33.95 165.93-34.35 166.58-34.75 167.33-34.75L167.33-34.75Q168.13-34.75 168.78-34.35 169.43-33.95 169.43-33.3L169.43-33.3 169.43-23.7 175.73-23.7Q176.33-23.7 176.66-23.2 176.98-22.7 176.98-22.05L176.98-22.05Q176.98-21.4 176.66-20.93 176.33-20.45 175.73-20.45L175.73-20.45 169.43-20.45 169.43-7.55Q169.43-5.4 170.36-4.53 171.28-3.65 173.58-3.65L173.58-3.65 175.13-3.65Q176.03-3.65 176.48-3.1 176.93-2.55 176.93-1.85L176.93-1.85Q176.93-1.15 176.48-0.58 176.03 0 175.13 0L175.13 0Z" opacity="1" transform="matrix(1,0,0,1,0,0)" fill="#000000" class="undefined-text-0" data-fill-palette-color="primary" id="text-0"></path></svg></g></svg></g></svg></g></svg></g></svg></g><defs></defs></svg><rect width="395.52" height="87.56395503026809" fill="none" stroke="none" visibility="hidden"></rect></g></svg></g></svg>