<svg version="1.1" id="Layer_1" xmlns="http://www.w3.org/2000/svg" xmlns:xlink="http://www.w3.org/1999/xlink" x="0px" y="0px"
	 width="100%" viewBox="0 0 512 512" enable-background="new 0 0 512 512" xml:space="preserve">
<path fill="#2364AA" opacity="1.000000" stroke="none" 
	d="
M243.000000,1.000000 
	C252.020889,1.000000 261.041779,1.000000 270.344482,1.347792 
	C286.399170,7.653613 296.812317,20.334736 308.223267,31.739418 
	C371.164642,94.646164 434.043213,157.615829 497.061859,220.445023 
	C503.160248,226.525070 507.668579,233.399826 511.003998,241.214981 
	C511.321320,241.958527 512.318420,242.411911 513.000000,243.000000 
	C513.000000,252.020889 513.000000,261.041779 512.651367,270.341492 
	C511.873657,271.272430 511.308075,271.872345 511.035492,272.584381 
	C505.978912,285.792694 497.595490,296.127136 484.006927,300.805176 
	C476.215637,303.487396 467.825195,304.429169 459.001312,306.303864 
	C459.001312,307.469604 459.001282,309.420166 459.001282,311.370758 
	C459.001251,358.989624 459.053131,406.608643 458.925201,454.227142 
	C458.911621,459.282440 458.249451,464.420837 457.196594,469.373688 
	C452.781647,490.142273 439.914764,503.548370 420.306946,510.932892 
	C419.406219,511.272064 418.763092,512.295349 418.000000,513.000000 
	C383.312439,513.000000 348.624878,513.000000 313.765076,512.727539 
	C306.869202,507.035919 305.772034,499.894623 305.848724,491.613586 
	C306.194183,454.304413 306.101501,416.989807 305.949860,379.678070 
	C305.887817,364.413391 295.508514,352.489258 279.402344,352.915558 
	C264.421234,353.312073 249.410187,353.363068 234.432907,352.900269 
	C218.879257,352.419647 207.912125,364.920166 207.960419,379.693329 
	C208.081848,416.838745 207.860596,453.985748 208.106812,491.129944 
	C208.162827,499.581116 207.960251,507.388855 199.639252,512.242920 
	C199.619141,512.254700 199.873718,512.737305 200.000000,513.000000 
	C165.645767,513.000000 131.291550,513.000000 96.654884,512.645508 
	C90.812843,509.581757 84.796165,507.530334 79.776924,504.043213 
	C62.811756,492.256653 55.114815,475.356079 55.048584,455.022400 
	C54.892311,407.043427 54.998314,359.063660 54.998241,311.084198 
	C54.998238,309.158508 54.998245,307.232788 54.998245,305.561890 
	C48.822319,304.826630 43.353767,304.565765 38.056789,303.473145 
	C20.873100,299.928589 9.694580,289.230896 3.072036,273.307251 
	C2.697481,272.406677 1.704924,271.763153 1.000003,271.000000 
	C1.000000,261.979095 1.000000,252.958206 1.351657,243.650452 
	C7.309917,228.045242 19.548197,217.971939 30.564796,206.950134 
	C93.864655,143.620377 157.221085,80.347061 220.445847,16.942469 
	C226.517700,10.853348 233.390610,6.337854 241.189987,2.983340 
	C241.939087,2.661144 242.403458,1.676904 243.000000,1.000000 
z"/>
<path fill="#000000" opacity="1.000000" stroke="none" 
	d="
M513.000000,242.531342 
	C512.318420,242.411911 511.321320,241.958527 511.003998,241.214981 
	C507.668579,233.399826 503.160248,226.525070 497.061859,220.445023 
	C434.043213,157.615829 371.164642,94.646164 308.223267,31.739418 
	C296.812317,20.334736 286.399170,7.653613 270.813110,1.347792 
	C351.593719,1.000000 432.187408,1.000000 513.000000,1.000000 
	C513.000000,81.354095 513.000000,161.708389 513.000000,242.531342 
z"/>
<path fill="#000000" opacity="1.000000" stroke="none" 
	d="
M242.531342,1.000000 
	C242.403458,1.676904 241.939087,2.661144 241.189987,2.983340 
	C233.390610,6.337854 226.517700,10.853348 220.445847,16.942469 
	C157.221085,80.347061 93.864655,143.620377 30.564796,206.950134 
	C19.548197,217.971939 7.309917,228.045242 1.351657,243.181793 
	C1.000000,162.406296 1.000000,81.812592 1.000000,1.000000 
	C81.354095,1.000000 161.708389,1.000000 242.531342,1.000000 
z"/>
<path fill="#000000" opacity="1.000000" stroke="none" 
	d="
M200.468658,513.000000 
	C199.873718,512.737305 199.619141,512.254700 199.639252,512.242920 
	C207.960251,507.388855 208.162827,499.581116 208.106812,491.129944 
	C207.860596,453.985748 208.081848,416.838745 207.960419,379.693329 
	C207.912125,364.920166 218.879257,352.419647 234.432907,352.900269 
	C249.410187,353.363068 264.421234,353.312073 279.402344,352.915558 
	C295.508514,352.489258 305.887817,364.413391 305.949860,379.678070 
	C306.101501,416.989807 306.194183,454.304413 305.848724,491.613586 
	C305.772034,499.894623 306.869202,507.035919 313.296387,512.727539 
	C275.645782,513.000000 238.291550,513.000000 200.468658,513.000000 
z"/>
<path fill="#000000" opacity="1.000000" stroke="none" 
	d="
M418.468658,513.000000 
	C418.763092,512.295349 419.406219,511.272064 420.306946,510.932892 
	C439.914764,503.548370 452.781647,490.142273 457.196594,469.373688 
	C458.249451,464.420837 458.911621,459.282440 458.925201,454.227142 
	C459.053131,406.608643 459.001251,358.989624 459.001282,311.370758 
	C459.001282,309.420166 459.001312,307.469604 459.001312,306.303864 
	C467.825195,304.429169 476.215637,303.487396 484.006927,300.805176 
	C497.595490,296.127136 505.978912,285.792694 511.035492,272.584381 
	C511.308075,271.872345 511.873657,271.272430 512.651367,270.810181 
	C513.000000,351.561829 513.000000,432.123657 513.000000,513.000000 
	C481.646484,513.000000 450.291901,513.000000 418.468658,513.000000 
z"/>
<path fill="#000000" opacity="1.000000" stroke="none" 
	d="
M1.000003,271.468658 
	C1.704924,271.763153 2.697481,272.406677 3.072036,273.307251 
	C9.694580,289.230896 20.873100,299.928589 38.056789,303.473145 
	C43.353767,304.565765 48.822319,304.826630 54.998245,305.561890 
	C54.998245,307.232788 54.998238,309.158508 54.998241,311.084198 
	C54.998314,359.063660 54.892311,407.043427 55.048584,455.022400 
	C55.114815,475.356079 62.811756,492.256653 79.776924,504.043213 
	C84.796165,507.530334 90.812843,509.581757 96.186226,512.645508 
	C64.374489,513.000000 32.748978,513.000000 1.000000,513.000000 
	C1.000000,432.645813 1.000000,352.291565 1.000003,271.468658 
z"/>
</svg>