<svg xmlns="http://www.w3.org/2000/svg" version="1.1" xmlns:xlink="http://www.w3.org/1999/xlink" xmlns:svgjs="http://svgjs.dev/svgjs" width="1000" height="1000" viewBox="0 0 1000 1000"><rect width="1000" height="1000" fill="#4a7cbf"></rect><g transform="matrix(0.41395623891188643,0,0,0.41395623891188643,292.66736898889167,150.28340812148218)"><svg viewBox="0 0 146 247" data-background-color="#4a7cbf" preserveAspectRatio="xMidYMid meet" height="1691" width="1000" xmlns="http://www.w3.org/2000/svg" xmlns:xlink="http://www.w3.org/1999/xlink"><g id="tight-bounds" transform="matrix(1,0,0,1,0.1250341997264286,-0.09999741999129697)"><svg viewBox="0 0 145.74993160054717 247.2" height="247.2" width="145.74993160054717"><g><svg viewBox="0 0 145.74993160054717 247.2" height="247.2" width="145.74993160054717"><g><svg viewBox="0 0 145.74993160054717 247.2" height="247.2" width="145.74993160054717"><g><svg viewBox="0 0 145.74993160054717 247.2" height="247.2" width="145.74993160054717"><g><svg viewBox="0 0 145.74993160054717 247.2" height="247.2" width="145.74993160054717"><g transform="matrix(1,0,0,1,0,0)"><svg width="145.74993160054717" viewBox="3.549999952316284 -36.54999923706055 21.55000114440918 36.54999923706055" height="247.2" data-palette-color="#fbfbfb"><path d="M14.3 0L5.45 0Q4.6 0 4.08-0.43 3.55-0.85 3.55-1.45L3.55-1.45 3.55-35.1Q3.55-35.7 4.08-36.13 4.6-36.55 5.45-36.55L5.45-36.55 14.3-36.55Q17.35-36.55 19.8-35.48 22.25-34.4 23.68-32.02 25.1-29.65 25.1-25.65L25.1-25.65 25.1-10.9Q25.1-6.9 23.68-4.53 22.25-2.15 19.8-1.07 17.35 0 14.3 0L14.3 0ZM7.75-32.75L7.75-3.8 14.3-3.8Q17.4-3.8 19.15-5.53 20.9-7.25 20.9-10.9L20.9-10.9 20.9-25.65Q20.9-29.3 19.15-31.03 17.4-32.75 14.3-32.75L14.3-32.75 7.75-32.75Z" opacity="1" transform="matrix(1,0,0,1,0,0)" fill="#fbfbfb" class="undefined-text-0" data-fill-palette-color="primary" id="text-0"></path></svg></g></svg></g></svg></g></svg></g></svg></g><defs></defs></svg><rect width="145.74993160054717" height="247.2" fill="none" stroke="none" visibility="hidden"></rect></g></svg></g></svg>